<?xml version="1.0" encoding="UTF-8" standalone="no"?>
<svg width="79px" height="51px" viewBox="0 0 79 51" version="1.1" xmlns="http://www.w3.org/2000/svg" xmlns:xlink="http://www.w3.org/1999/xlink">
    <!-- Generator: Sketch 3.6.1 (26313) - http://www.bohemiancoding.com/sketch -->
    <title>Logo</title>
    <desc>Created with Sketch.</desc>
    <defs></defs>
    <g id="Page-1" stroke="none" stroke-width="1" fill="none" fill-rule="evenodd">
        <g id="Desktop" transform="translate(-18.000000, -27.000000)" fill="#000000">
            <g id="Logo" transform="translate(18.000000, 27.000000)">
                <path d="M2,2 L2,2 L2,49 L77,49 L77,2 L2,2 Z M2,0 L2,0 L77,0 L79,0 L79,2 L79,49 L79,51 L77,51 L2,51 L0,51 L0,49 L0,2 L0,0 L2,0 Z" id="Rectangle-1"></path>
                <path d="M16.372,18.068 C18.946,18.068 20.314,16.538 20.314,14.234 C20.314,11.93 18.946,10.4 16.372,10.4 L11.62,10.4 L11.62,23 L13.96,23 L13.96,18.068 L16.372,18.068 Z M13.96,15.908 L13.96,12.56 L16.282,12.56 C17.38,12.56 17.938,13.118 17.938,14.234 C17.938,15.35 17.38,15.908 16.282,15.908 L13.96,15.908 Z M25.0274283,23 L32.7134283,23 L32.7134283,20.84 L27.3674283,20.84 L27.3674283,10.4 L25.0274283,10.4 L25.0274283,23 Z M47.5068566,23 L43.2408566,10.4 L40.9008566,10.4 L36.6348566,23 L39.1548566,23 L40.0728566,20.03 L44.0688566,20.03 L44.9868566,23 L47.5068566,23 Z M43.4028566,17.87 L40.7388566,17.87 L42.0708566,13.496 L43.4028566,17.87 Z M52.6882849,17.636 L52.6882849,23 L55.0282849,23 L55.0282849,17.636 L58.6642849,10.4 L56.1442849,10.4 L53.8582849,15.296 L51.5722849,10.4 L49.0522849,10.4 L52.6882849,17.636 Z M11.62,41 L19.306,41 L19.306,38.84 L13.96,38.84 L13.96,28.4 L11.62,28.4 L11.62,41 Z M23.9834283,28.4 L23.9834283,41 L26.3234283,41 L26.3234283,28.4 L23.9834283,28.4 Z M38.7588566,30.542 C38.0388566,29.012 36.8328566,28.256 35.1228566,28.256 C34.1328566,28.256 33.3228566,28.58 32.6568566,29.246 C32.0088566,29.912 31.6848566,30.722 31.6848566,31.676 C31.6488566,33.998 33.5928566,34.952 35.0868566,35.582 C36.1488566,36.032 36.9588566,36.608 36.9588566,37.346 C36.9588566,38.444 36.4188566,38.984 35.3208566,38.984 C34.1328566,38.984 33.3048566,38.138 32.8188566,36.428 L30.9288566,37.616 C31.1268566,38.606 31.6308566,39.452 32.4228566,40.136 C33.2148566,40.802 34.1688566,41.144 35.2668566,41.144 C37.7148566,41.144 39.2988566,39.668 39.2988566,37.22 C39.3168566,35.042 37.3188566,34.106 35.8068566,33.44 C34.7808566,32.954 33.9168566,32.36 33.9168566,31.568 C33.9168566,30.902 34.4208566,30.416 35.1228566,30.416 C35.8248566,30.416 36.4188566,30.866 36.8688566,31.748 L38.7588566,30.542 Z M46.2622849,30.56 L46.2622849,41 L48.6022849,41 L48.6022849,30.56 L52.0942849,30.56 L52.0942849,28.4 L42.7702849,28.4 L42.7702849,30.56 L46.2622849,30.56 Z M65.1057132,31.982 C65.1057132,29.822 63.7197132,28.4 61.2717132,28.4 L56.6817132,28.4 L56.6817132,41 L59.0217132,41 L59.0217132,35.564 L60.2457132,35.564 L63.6297132,41 L66.2397132,41 L62.7477132,35.366 C64.2597132,34.916 65.1057132,33.656 65.1057132,31.982 L65.1057132,31.982 Z M59.0217132,33.404 L59.0217132,30.56 L61.2897132,30.56 C62.2797132,30.56 62.7657132,31.028 62.7657132,31.982 C62.7657132,32.936 62.2797132,33.404 61.2897132,33.404 L59.0217132,33.404 Z" id="PLAY"></path>
            </g>
        </g>
    </g>
</svg>